<svg width="19" height="16" viewBox="0 0 19 16" fill="none" xmlns="http://www.w3.org/2000/svg">
<path d="M5.5 1.5C5.5 0.6875 6.15625 0 7 0H8.5V2.5C8.5 2.78125 8.71875 3 9 3H10C10.25 3 10.5 2.78125 10.5 2.5V0H12C12.8125 0 13.5 0.6875 13.5 1.5V5.5C13.5 6.34375 12.8125 7 12 7H7C6.15625 7 5.5 6.34375 5.5 5.5V1.5ZM3.5 9V11.5C3.5 11.7812 3.71875 12 4 12H5C5.25 12 5.5 11.7812 5.5 11.5V9H7C7.8125 9 8.5 9.6875 8.5 10.5V14.5C8.5 15.3438 7.8125 16 7 16H2C1.15625 16 0.5 15.3438 0.5 14.5V10.5C0.5 9.6875 1.15625 9 2 9H3.5ZM13.5 9V11.5C13.5 11.7812 13.7188 12 14 12H15C15.25 12 15.5 11.7812 15.5 11.5V9H17C17.8125 9 18.5 9.6875 18.5 10.5V14.5C18.5 15.3438 17.8125 16 17 16H12C11.1562 16 10.5 15.3438 10.5 14.5V10.5C10.5 9.6875 11.1562 9 12 9H13.5Z" fill="white"/>
</svg>
