<svg width="19" height="14" viewBox="0 0 19 14" fill="none" xmlns="http://www.w3.org/2000/svg">
<path d="M9.21875 4.03125C9.3125 4.03125 9.40625 4 9.5 4C11.1562 4 12.5 5.34375 12.5 7C12.5 8.65625 11.1562 10 9.5 10C7.8125 10 6.5 8.65625 6.5 7C6.5 6.9375 6.5 6.84375 6.5 6.75C6.78125 6.90625 7.125 7 7.5 7C8.59375 7 9.5 6.125 9.5 5C9.5 4.65625 9.375 4.3125 9.21875 4.03125ZM15.5 2.53125C16.9688 3.875 17.9375 5.5 18.4062 6.625C18.5 6.875 18.5 7.15625 18.4062 7.40625C17.9375 8.5 16.9688 10.125 15.5 11.5C14.0312 12.875 12 14 9.5 14C6.96875 14 4.9375 12.875 3.46875 11.5C2 10.125 1.03125 8.5 0.5625 7.40625C0.46875 7.15625 0.46875 6.875 0.5625 6.625C1.03125 5.5 2 3.875 3.46875 2.53125C4.9375 1.15625 6.96875 0 9.5 0C12 0 14.0312 1.15625 15.5 2.53125ZM9.5 2.5C7 2.5 5 4.53125 5 7C5 9.5 7 11.5 9.5 11.5C11.9688 11.5 14 9.5 14 7C14 4.53125 11.9688 2.5 9.5 2.5Z" fill="white"/>
</svg>
