<svg width="21" height="19" viewBox="0 0 21 19" fill="none" xmlns="http://www.w3.org/2000/svg">
<path d="M6.25 15.75C6.91406 15.75 7.5 16.3359 7.5 17C7.5 17.7031 6.91406 18.25 6.25 18.25H3.75C1.64062 18.25 0 16.6094 0 14.5V4.5C0 2.42969 1.64062 0.75 3.75 0.75H6.25C6.91406 0.75 7.5 1.33594 7.5 2C7.5 2.70312 6.91406 3.25 6.25 3.25H3.75C3.04688 3.25 2.5 3.83594 2.5 4.5V14.5C2.5 15.2031 3.04688 15.75 3.75 15.75H6.25ZM19.6094 8.64062C20.1172 9.10938 20.1172 9.92969 19.6094 10.3984L14.6094 15.3984C14.1406 15.9062 13.3203 15.9062 12.8516 15.3984C12.3438 14.9297 12.3438 14.1094 12.8516 13.6406L15.7031 10.75H7.5C6.79688 10.75 6.25 10.2031 6.25 9.5C6.25 8.83594 6.79688 8.25 7.5 8.25H15.7031L12.8516 5.39844C12.3438 4.92969 12.3438 4.10938 12.8516 3.64062C13.3203 3.13281 14.1406 3.13281 14.6094 3.64062L19.6094 8.64062Z" fill="#053B50"/>
</svg>
