<svg width="160" height="205" viewBox="0 0 160 205" fill="none" xmlns="http://www.w3.org/2000/svg">
<path d="M9 109.58V38.2204C9 32.349 12.3516 26.9293 17.9375 24.6711L77.8187 0.5081C79.3828 -0.169367 81.3937 -0.169367 82.9578 0.5081L142.839 24.6711C148.425 26.9293 152 32.349 152 38.2204V109.58C152 112.742 149.542 115 146.637 115H135.912C132.784 115 130.55 112.742 130.55 109.58V49.9632C130.55 46.1242 127.198 42.7369 123.4 42.7369H37.6C33.5781 42.7369 30.45 46.1242 30.45 49.9632V109.58C30.45 112.742 27.9922 115 25.0875 115H14.3625C11.2344 115 9 112.742 9 109.58ZM42.9625 115C39.8344 115 37.6 112.742 37.6 109.58V96.9342H123.4V109.58C123.4 112.742 120.942 115 118.037 115H42.9625ZM37.6 75.2553H123.4V89.7079H37.6V75.2553ZM37.6 49.9632H123.4V68.029H37.6V49.9632Z" fill="white"/>
<path d="M27.84 185.64L26.32 185.56L24.88 185.24L23.28 184.68L21.84 184.36L18.24 182.84L14.8 181L11.2 177.88L7.92 174.36L4.48 167.4L3.36 162.84L2.88 157L3.68 150.12L4.48 146.84L6.48 142.36L8 140.04L10.16 137.32L13.6 134.2L15.92 132.44L21.84 129.64L29.6 128.12L34.56 128.2L36.16 128.44L37.68 128.52L45.36 131.08L50.8 134.52L53.04 136.84L53.92 138.36L55.04 139.72L55.76 141L56.64 142.28L57.12 143.96L57.68 145.4L58.16 147.16L57.6 148.76L56.24 149.4L53.84 149.64L51.6 149.4L50 149.48L48.32 149.4L46.88 149.56L45.04 148.68L43.52 147.16L42.64 145.96L40.32 143.64L39.2 142.76L37.76 142.2L35.28 141.48L31.84 141.32L26.48 142.04L24.32 143.24L22.4 144.76L20.48 147L19.68 148.52L18.48 151.4L17.92 154.6V159.48L18.16 161.24L18.56 162.68L19.12 163.8L19.68 165.4L21.44 168.2L23.76 170.28L26.56 171.72L29.44 172.76L31.76 173L36 172.76L38.8 171.24L40 170.76L41.28 169.64L43.12 167.56L43.92 166.04L45.2 164.76L47.04 163.8L48.64 163.88L50.24 163.8L51.84 164.04L56.32 163.72L57.92 164.76L58.4 166.2L56.32 172.28L54.64 175.16L52.8 177.56L50.56 179.8L46.64 182.6L45.28 183.24L43.6 183.8L42.16 184.6L37.44 185.56L31.84 185.96L27.84 185.64ZM82.3756 185.96L80.8556 185.8L77.5756 184.84L75.9756 184.2L74.5356 183.72L71.9756 182.2L70.6156 181.16L68.5356 178.84L66.6956 176.36L65.8956 174.76L64.9356 171.8L64.6156 168.04L64.7756 164.04L65.6556 161.08L68.0556 157.08L69.0956 156.04L70.1356 154.68L70.6956 153.08L70.5356 151.64L69.1756 148.92L68.1356 146.12V141.16L68.5356 139.72L68.8556 137.96L69.4956 136.68L70.5356 135.32L71.1756 134.2L72.2156 133L74.8556 130.84L76.1356 130.12L79.0956 128.84L82.2956 128.04L86.2156 127.8L91.1756 128.2L95.0156 129.4L96.3756 130.04L99.3356 132.2L101.336 134.44L102.216 135.8L102.936 137.32L103.656 140.6L102.936 142.28L100.536 142.76L93.2556 142.84L91.4956 142.12L89.9756 141.08L88.5356 140.2L86.3756 139.8L84.2156 140.12L83.0156 140.92L81.9756 142.12L81.8156 144.36L82.3756 146.6L83.9756 147.48L86.2156 148.04L88.2956 149.08L88.7756 150.76L88.9356 157.64L88.2156 159.32L86.2156 159.96L84.0556 160.28L82.3756 161.08L81.0156 162.12L80.1356 163.16L79.4156 164.84L79.1756 167L79.3356 169.64L80.1356 170.92L81.2556 172.2L82.5356 173.16L83.9756 173.64L86.2956 174.04L88.6956 173.72L90.1356 173L91.5756 172.12L93.2556 169.56L93.5756 150.28L94.5356 148.92L96.1356 148.04H97.7356L99.3356 148.28L101.576 148.04H105.656L107.336 147.88L108.936 148.12L110.376 148.92L111.176 151.16L111.096 153.64L111.336 155.08V158.12L110.536 159.64L108.776 160.68L107.096 161.32L106.296 163.48L106.136 169.16L105.736 172.44L104.856 175.4L103.496 178.44L101.416 180.76L99.0156 182.92L96.3756 184.6L93.2556 185.56L89.4956 186.04L82.3756 185.96ZM141.746 185.24L140.146 185.08L138.546 185.24L136.706 185.16L135.186 184.84L131.906 185.08L130.466 185L128.706 185.16L122.946 185.08L120.546 184.04L119.906 181.88L119.746 180.12L119.986 174.6L119.746 173L119.906 171.48L119.986 158.52L119.746 157.08L119.826 150.52L119.986 149L119.746 147.32L119.906 139.48L119.666 137.72L119.906 134.44L119.746 131.4L120.626 129.72L122.306 129.08L123.906 129.16L125.506 129L126.946 129.16L128.466 128.84L130.066 129.08L136.626 128.92L138.226 129.08L139.586 129L141.186 129.16L142.946 129L149.426 128.92L150.866 129.24H152.546L154.146 129.88L154.866 131.4L155.026 136.2L154.946 137.8L155.026 139.4L154.226 140.84L152.546 141.8L151.026 141.88L139.586 141.72L138.066 142.04L136.546 141.96L134.786 142.6L134.066 144.12V146.6L134.706 149.08L136.386 149.8L141.026 149.64L144.386 149.88L146.066 149.72H150.786L152.626 150.76L153.426 153L153.186 160.2L152.626 161.8L151.026 162.44L149.186 162.36L147.586 162.52L144.306 162.44L141.266 162.6L138.706 162.36L136.306 162.44L134.866 163.32L134.146 165V170.04L134.786 171.48L136.466 172.28L138.226 172.12L139.746 172.36L141.506 172.28L143.106 172.44L145.746 172.12L149.826 172.2L151.346 172.44L153.186 172.28L154.866 173L155.746 174.6V182.68L154.866 184.36L153.186 185.08L141.746 185.24Z" fill="white"/>
</svg>
