<svg width="15" height="14" viewBox="0 0 15 14" fill="none" xmlns="http://www.w3.org/2000/svg">
<path d="M5 0C5.8125 0 6.5 0.6875 6.5 1.5V4.5C6.5 5.34375 5.8125 6 5 6H2C1.15625 6 0.5 5.34375 0.5 4.5V1.5C0.5 0.6875 1.15625 0 2 0H5ZM4.5 2H2.5V4H4.5V2ZM5 8C5.8125 8 6.5 8.6875 6.5 9.5V12.5C6.5 13.3438 5.8125 14 5 14H2C1.15625 14 0.5 13.3438 0.5 12.5V9.5C0.5 8.6875 1.15625 8 2 8H5ZM4.5 10H2.5V12H4.5V10ZM8.5 1.5C8.5 0.6875 9.15625 0 10 0H13C13.8125 0 14.5 0.6875 14.5 1.5V4.5C14.5 5.34375 13.8125 6 13 6H10C9.15625 6 8.5 5.34375 8.5 4.5V1.5ZM10.5 4H12.5V2H10.5V4ZM11.5 13H12.5V14H11.5V13ZM14.5 14H13.5V13H14.5V14ZM13.5 8H14.5V12H11.5V11H10.5V14H8.5V8H11.5V9H13.5V8Z" fill="white"/>
</svg>
