<svg width="17" height="16" viewBox="0 0 17 16" fill="none" xmlns="http://www.w3.org/2000/svg">
<path d="M3.78125 5.71875C3.375 5.34375 3.375 4.6875 3.78125 4.3125L7.78125 0.3125C7.96875 0.125 8.21875 0 8.5 0C8.75 0 9 0.125 9.1875 0.3125L13.1875 4.3125C13.5938 4.6875 13.5938 5.34375 13.1875 5.71875C12.8125 6.125 12.1562 6.125 11.7812 5.71875L9.5 3.4375V11C9.5 11.5625 9.03125 12 8.5 12C7.9375 12 7.5 11.5625 7.5 11V3.4375L5.1875 5.71875C4.8125 6.125 4.15625 6.125 3.78125 5.71875ZM15.5 11C16.0312 11 16.5 11.4688 16.5 12V15C16.5 15.5625 16.0312 16 15.5 16H1.5C0.9375 16 0.5 15.5625 0.5 15V12C0.5 11.4688 0.9375 11 1.5 11H6.5C6.5 12.125 7.375 13 8.5 13C9.59375 13 10.5 12.125 10.5 11H15.5ZM14 14.25C14.4062 14.25 14.75 13.9375 14.75 13.5C14.75 13.0938 14.4062 12.75 14 12.75C13.5625 12.75 13.25 13.0938 13.25 13.5C13.25 13.9375 13.5625 14.25 14 14.25Z" fill="white"/>
</svg>
