<svg width="17" height="13" viewBox="0 0 17 13" fill="none" xmlns="http://www.w3.org/2000/svg">
<path d="M8.62891 4.15234C8.71094 4.15234 8.79297 4.125 8.875 4.125C10.3242 4.125 11.5 5.30078 11.5 6.75C11.5 8.19922 10.3242 9.375 8.875 9.375C7.39844 9.375 6.25 8.19922 6.25 6.75C6.25 6.69531 6.25 6.61328 6.25 6.53125C6.49609 6.66797 6.79688 6.75 7.125 6.75C8.08203 6.75 8.875 5.98438 8.875 5C8.875 4.69922 8.76562 4.39844 8.62891 4.15234ZM14.125 2.83984C15.4102 4.01562 16.2578 5.4375 16.668 6.42188C16.75 6.64062 16.75 6.88672 16.668 7.10547C16.2578 8.0625 15.4102 9.48438 14.125 10.6875C12.8398 11.8906 11.0625 12.875 8.875 12.875C6.66016 12.875 4.88281 11.8906 3.59766 10.6875C2.3125 9.48438 1.46484 8.0625 1.05469 7.10547C0.972656 6.88672 0.972656 6.64062 1.05469 6.42188C1.46484 5.4375 2.3125 4.01562 3.59766 2.83984C4.88281 1.63672 6.66016 0.625 8.875 0.625C11.0625 0.625 12.8398 1.63672 14.125 2.83984ZM8.875 2.8125C6.6875 2.8125 4.9375 4.58984 4.9375 6.75C4.9375 8.9375 6.6875 10.6875 8.875 10.6875C11.0352 10.6875 12.8125 8.9375 12.8125 6.75C12.8125 4.58984 11.0352 2.8125 8.875 2.8125Z" fill="#053B50"/>
</svg>
